HIERARCHY
ROOT Hips
{
	OFFSET -0.001795 -0.223333 0.028219
	CHANNELS 6 Xposition Yposition Zposition Zrotation Yrotation Xrotation 
	JOINT LeftUpLeg
	{
		OFFSET 0.069520 -0.091406 -0.006815
		CHANNELS 3 Zrotation Yrotation Xrotation
		JOINT LeftLeg
		{
			OFFSET 0.034277 -0.375199 -0.004496
			CHANNELS 3 Zrotation Yrotation Xrotation
			JOINT LeftFoot
			{
				OFFSET -0.013596 -0.397961 -0.043693
				CHANNELS 3 Zrotation Yrotation Xrotation
				JOINT LeftToe
				{
					OFFSET 0.026358 -0.055791 0.119288
					CHANNELS 3 Zrotation Yrotation Xrotation
					End Site
					{
						OFFSET 0.000000 0.000000 0.000000
					}
				}
			}
		}
	}
	JOINT RightUpLeg
	{
		OFFSET -0.067670 -0.090522 -0.004320
		CHANNELS 3 Zrotation Yrotation Xrotation
		JOINT RightLeg
		{
			OFFSET -0.038290 -0.382569 -0.008850
			CHANNELS 3 Zrotation Yrotation Xrotation
			JOINT RightFoot
			{
				OFFSET 0.015774 -0.398415 -0.042312
				CHANNELS 3 Zrotation Yrotation Xrotation
				JOINT RightToe
				{
					OFFSET -0.025372 -0.048144 0.123348
					CHANNELS 3 Zrotation Yrotation Xrotation
					End Site
					{
						OFFSET 0.000000 0.000000 0.000000
					}
				}
			}
		}
	}
	JOINT Spine
	{
		OFFSET -0.002533 0.108963 -0.026696
		CHANNELS 3 Zrotation Yrotation Xrotation
		JOINT Spine1
		{
			OFFSET 0.005487 0.135180 0.001092
			CHANNELS 3 Zrotation Yrotation Xrotation
			JOINT Spine2
			{
				OFFSET 0.001457 0.052922 0.025425
				CHANNELS 3 Zrotation Yrotation Xrotation
				JOINT Neck
				{
					OFFSET -0.002778 0.213870 -0.042857
					CHANNELS 3 Zrotation Yrotation Xrotation
					JOINT Head
					{
						OFFSET 0.005152 0.064970 0.051349
						CHANNELS 3 Zrotation Yrotation Xrotation
						End Site
						{
							OFFSET 0.000000 0.000000 0.000000
						}
					}
				}
				JOINT LeftShoulder
				{
					OFFSET 0.078845 0.121749 -0.034090
					CHANNELS 3 Zrotation Yrotation Xrotation
					JOINT LeftArm
					{
						OFFSET 0.090977 0.030469 -0.008868
						CHANNELS 3 Zrotation Yrotation Xrotation
						JOINT LeftForeArm
						{
							OFFSET 0.259612 -0.012772 -0.027456
							CHANNELS 3 Zrotation Yrotation Xrotation
							JOINT LeftHand
							{
								OFFSET 0.249234 0.008986 -0.001171
								CHANNELS 3 Zrotation Yrotation Xrotation
								End Site
								{
									OFFSET 0.000000 0.000000 0.000000
								}
							}
						}
					}
				}
				JOINT RightShoulder
				{
					OFFSET -0.081759 0.118833 -0.038615
					CHANNELS 3 Zrotation Yrotation Xrotation
					JOINT RightArm
					{
						OFFSET -0.096012 0.032551 -0.009143
						CHANNELS 3 Zrotation Yrotation Xrotation
						JOINT RightForeArm
						{
							OFFSET -0.253742 -0.013329 -0.021401
							CHANNELS 3 Zrotation Yrotation Xrotation
							JOINT RightHand
							{
								OFFSET -0.255298 0.007772 -0.005559
								CHANNELS 3 Zrotation Yrotation Xrotation
								End Site
								{
									OFFSET 0.000000 0.000000 0.000000
								}
							}
						}
					}
				}
			}
		}
	}
}
MOTION
Frames: 7
Frame Time: 0.050000
0.000000 0.966752 0.000000 -4.050680 -2.022379 7.262469 5.897621 -0.406008 -6.939107 -3.137898 0.374120 -3.919138 0.348568 4.944295 12.107536 0.000000 0.000000 0.000000 -3.489149 0.534446 -5.369110 1.617126 -0.136797 0.865895 -2.760715 -11.350453 16.302187 0.000000 0.000000 0.000000 -4.094556 0.062899 16.927089 2.549378 -0.331705 -17.706394 3.056497 5.388725 27.456482 -2.025157 3.445424 -26.689377 0.000000 0.000000 0.000000 -22.033466 -17.757498 7.746680 -49.517422 -34.409073 6.477182 14.806579 -20.550314 -1.654204 0.000000 0.000000 0.000000 16.072702 27.870081 14.584441 61.668681 37.562849 12.904939 -12.927275 16.892192 -0.905672 0.000000 0.000000 0.000000 
0.002757 0.965277 0.001484 -4.676943 -4.748782 7.536076 5.980207 -0.340643 -6.234949 -2.603873 0.354625 -4.454871 1.009592 5.710183 12.170170 0.000000 0.000000 0.000000 -3.604364 0.642725 -6.622661 2.731508 -0.234635 0.963046 -2.352977 -10.955249 15.751584 0.000000 0.000000 0.000000 -4.319212 0.178048 16.490715 3.498623 -0.640509 -18.097775 2.819737 6.870704 28.273897 -3.305453 4.180432 -26.631284 0.000000 0.000000 0.000000 -23.971664 -15.945893 6.899450 -47.580620 -34.276254 5.898361 14.859354 -21.090916 -1.685702 0.000000 0.000000 0.000000 17.752561 28.385031 15.289650 61.752104 37.221378 12.584154 -14.950832 18.830063 -1.273842 0.000000 0.000000 0.000000 
0.005063 0.965298 0.002783 -4.406481 -4.915839 7.032168 6.074779 -0.319750 -6.000633 -3.190957 0.394549 -3.292645 0.930005 5.679208 12.627682 0.000000 0.000000 0.000000 -4.056017 0.573882 -5.714736 2.339972 -0.215964 -0.015585 -1.714418 -10.370793 17.732081 0.000000 0.000000 0.000000 -4.397777 0.195241 16.878386 2.873559 -0.468482 -18.133249 3.156214 6.616645 27.908605 -3.616529 4.281143 -25.129534 0.000000 0.000000 0.000000 -25.716394 -15.844235 7.053572 -45.635905 -34.973733 5.819111 13.897200 -19.101201 -1.362596 0.000000 0.000000 0.000000 15.990391 28.163610 14.520124 63.069687 36.365037 12.593162 -13.023128 20.085284 -1.128890 0.000000 0.000000 0.000000 
0.006902 0.965182 0.003735 -4.766652 -6.326728 6.969798 6.013978 -0.275341 -5.280466 -2.941136 0.385834 -3.816909 1.176214 5.877804 12.494603 0.000000 0.000000 0.000000 -4.191581 0.574748 -5.590284 2.601364 -0.241599 -0.588728 -1.353503 -10.286887 18.849429 0.000000 0.000000 0.000000 -5.293870 0.386812 16.320021 4.118033 -0.851255 -18.136686 3.018079 6.903147 28.851788 -3.523515 4.175366 -26.404165 0.000000 0.000000 0.000000 -26.169883 -15.474662 7.092110 -45.848889 -34.378364 5.481448 15.432126 -20.118516 -1.652401 0.000000 0.000000 0.000000 16.806317 28.585032 14.827418 62.255291 36.015390 11.977595 -13.181039 20.878602 -1.206423 0.000000 0.000000 0.000000 
0.008192 0.965743 0.004275 -4.888949 -6.530225 6.533025 6.214143 -0.237945 -4.650371 -3.282514 0.419390 -3.927787 1.842629 7.065641 13.044942 0.000000 0.000000 0.000000 -4.179349 0.529380 -4.963711 2.349733 -0.219763 -0.559324 -1.069361 -10.022869 19.470098 0.000000 0.000000 0.000000 -5.303341 0.391214 16.533748 4.219362 -0.926016 -17.573280 2.827082 6.979039 28.229117 -3.193170 3.974939 -26.508831 0.000000 0.000000 0.000000 -26.812820 -15.248182 6.974534 -45.736681 -33.420201 5.137886 16.137883 -20.764076 -1.832342 0.000000 0.000000 0.000000 16.337671 27.753915 14.221687 63.257389 34.602667 11.466772 -12.906283 22.777646 -1.270973 0.000000 0.000000 0.000000 
0.009225 0.966226 0.004089 -4.931847 -6.990622 6.348199 6.210564 -0.229782 -4.697606 -3.171438 0.409730 -3.562866 2.011810 7.275340 12.996559 0.000000 0.000000 0.000000 -4.469395 0.536770 -5.003750 2.331631 -0.209138 -0.220854 -0.343034 -8.861266 19.154941 0.000000 0.000000 0.000000 -5.553745 0.454065 16.754711 4.594612 -0.975313 -18.517929 2.491774 6.765233 29.052727 -2.645218 3.613709 -27.288921 0.000000 0.000000 0.000000 -26.463912 -15.043595 7.063127 -45.924972 -32.669594 4.718684 16.408177 -22.744595 -2.035361 0.000000 0.000000 0.000000 16.597483 27.448013 13.999096 62.896592 33.426791 10.509312 -12.167857 24.585774 -1.246110 0.000000 0.000000 0.000000 
0.010005 0.966255 0.003243 -5.125837 -7.071033 6.416054 6.485984 -0.219712 -4.713764 -3.134832 0.409943 -3.961617 2.525982 8.236478 13.792277 0.000000 0.000000 0.000000 -4.212010 0.550326 -5.235286 1.923480 -0.177073 -0.336433 -0.399072 -9.090247 19.579662 0.000000 0.000000 0.000000 -5.571806 0.462549 16.863747 4.869241 -1.052825 -18.512886 2.256262 6.683770 28.559186 -2.535390 3.528206 -27.304298 0.000000 0.000000 0.000000 -27.445028 -14.458762 6.779349 -46.028067 -31.462910 4.288389 16.953773 -24.880099 -2.338824 0.000000 0.000000 0.000000 17.186841 26.916476 13.849679 62.455688 31.767144 9.378094 -11.616786 26.244024 -1.222466 0.000000 0.000000 0.000000 
